<mxfile host="www.draw.io" modified="2019-10-23T06:15:22.315Z" agent="Mozilla/5.0 (Windows NT 10.0; Win64; x64; rv:69.0) Gecko/20100101 Firefox/69.0" etag="QS65dsThQOqF4gxQG_lK" version="12.1.3" type="github" pages="1">
  <diagram id="CaCnCXX6NhgwgxZ8WEi7" name="Page-1">
    <mxGraphModel dx="1989" dy="1691" grid="1" gridSize="10" guides="1" tooltips="1" connect="1" arrows="1" fold="1" page="1" pageScale="1" pageWidth="850" pageHeight="1100" math="0" shadow="0">
      <root>
        <mxCell id="0"/>
        <mxCell id="1" parent="0"/>
        <mxCell id="mWCk10sWJktPvh425N72-1" style="rounded=1;orthogonalLoop=1;jettySize=auto;html=1;entryX=0.513;entryY=1.038;entryDx=0;entryDy=0;entryPerimeter=0;orthogonal=1;exitX=0.5;exitY=0;exitDx=0;exitDy=0;endArrow=block;endFill=0;endSize=12;dashed=1;" edge="1" parent="1" source="mWCk10sWJktPvh425N72-3" target="mWCk10sWJktPvh425N72-16">
          <mxGeometry relative="1" as="geometry">
            <mxPoint x="500" y="155" as="targetPoint"/>
          </mxGeometry>
        </mxCell>
        <mxCell id="mWCk10sWJktPvh425N72-2" style="orthogonalLoop=1;jettySize=auto;html=1;orthogonal=1;exitX=0.5;exitY=0;exitDx=0;exitDy=0;endArrow=block;endFill=0;endSize=12;rounded=1;dashed=1;entryX=0.5;entryY=1.115;entryDx=0;entryDy=0;entryPerimeter=0;" edge="1" parent="1" source="mWCk10sWJktPvh425N72-3" target="mWCk10sWJktPvh425N72-19">
          <mxGeometry relative="1" as="geometry">
            <mxPoint x="730" y="85" as="targetPoint"/>
          </mxGeometry>
        </mxCell>
        <mxCell id="mWCk10sWJktPvh425N72-3" value="AbstractQuad" style="swimlane;fontStyle=1;align=center;verticalAlign=top;childLayout=stackLayout;horizontal=1;startSize=26;horizontalStack=0;resizeParent=1;resizeParentMax=0;resizeLast=0;collapsible=1;marginBottom=0;" vertex="1" parent="1">
          <mxGeometry x="640" y="165" width="160" height="138" as="geometry"/>
        </mxCell>
        <mxCell id="mWCk10sWJktPvh425N72-4" value="+ field: type" style="text;strokeColor=none;fillColor=none;align=left;verticalAlign=top;spacingLeft=4;spacingRight=4;overflow=hidden;rotatable=0;points=[[0,0.5],[1,0.5]];portConstraint=eastwest;" vertex="1" parent="mWCk10sWJktPvh425N72-3">
          <mxGeometry y="26" width="160" height="26" as="geometry"/>
        </mxCell>
        <mxCell id="mWCk10sWJktPvh425N72-5" value="" style="line;strokeWidth=1;fillColor=none;align=left;verticalAlign=middle;spacingTop=-1;spacingLeft=3;spacingRight=3;rotatable=0;labelPosition=right;points=[];portConstraint=eastwest;" vertex="1" parent="mWCk10sWJktPvh425N72-3">
          <mxGeometry y="52" width="160" height="8" as="geometry"/>
        </mxCell>
        <mxCell id="mWCk10sWJktPvh425N72-6" value="+ perimeter()" style="text;strokeColor=none;fillColor=none;align=left;verticalAlign=top;spacingLeft=4;spacingRight=4;overflow=hidden;rotatable=0;points=[[0,0.5],[1,0.5]];portConstraint=eastwest;" vertex="1" parent="mWCk10sWJktPvh425N72-3">
          <mxGeometry y="60" width="160" height="26" as="geometry"/>
        </mxCell>
        <mxCell id="mWCk10sWJktPvh425N72-7" value="+ area()" style="text;strokeColor=none;fillColor=none;align=left;verticalAlign=top;spacingLeft=4;spacingRight=4;overflow=hidden;rotatable=0;points=[[0,0.5],[1,0.5]];portConstraint=eastwest;" vertex="1" parent="mWCk10sWJktPvh425N72-3">
          <mxGeometry y="86" width="160" height="26" as="geometry"/>
        </mxCell>
        <mxCell id="mWCk10sWJktPvh425N72-8" value="# getSides() : Integer[]" style="text;strokeColor=none;fillColor=none;align=left;verticalAlign=top;spacingLeft=4;spacingRight=4;overflow=hidden;rotatable=0;points=[[0,0.5],[1,0.5]];portConstraint=eastwest;" vertex="1" parent="mWCk10sWJktPvh425N72-3">
          <mxGeometry y="112" width="160" height="26" as="geometry"/>
        </mxCell>
        <mxCell id="mWCk10sWJktPvh425N72-9" style="rounded=1;orthogonalLoop=1;jettySize=auto;html=1;entryX=0.5;entryY=1;entryDx=0;entryDy=0;orthogonal=1;endArrow=block;endFill=0;endSize=12;" edge="1" parent="1" source="mWCk10sWJktPvh425N72-10" target="mWCk10sWJktPvh425N72-3">
          <mxGeometry relative="1" as="geometry">
            <mxPoint x="563.76" y="400.716" as="targetPoint"/>
          </mxGeometry>
        </mxCell>
        <mxCell id="mWCk10sWJktPvh425N72-10" value="AbstractSymmetricQuad" style="swimlane;fontStyle=1;align=center;verticalAlign=top;childLayout=stackLayout;horizontal=1;startSize=26;horizontalStack=0;resizeParent=1;resizeParentMax=0;resizeLast=0;collapsible=1;marginBottom=0;" vertex="1" parent="1">
          <mxGeometry x="640" y="362" width="160" height="112" as="geometry"/>
        </mxCell>
        <mxCell id="mWCk10sWJktPvh425N72-11" value="- field: type" style="text;strokeColor=none;fillColor=none;align=left;verticalAlign=top;spacingLeft=4;spacingRight=4;overflow=hidden;rotatable=0;points=[[0,0.5],[1,0.5]];portConstraint=eastwest;" vertex="1" parent="mWCk10sWJktPvh425N72-10">
          <mxGeometry y="26" width="160" height="26" as="geometry"/>
        </mxCell>
        <mxCell id="mWCk10sWJktPvh425N72-12" value="" style="line;strokeWidth=1;fillColor=none;align=left;verticalAlign=middle;spacingTop=-1;spacingLeft=3;spacingRight=3;rotatable=0;labelPosition=right;points=[];portConstraint=eastwest;" vertex="1" parent="mWCk10sWJktPvh425N72-10">
          <mxGeometry y="52" width="160" height="8" as="geometry"/>
        </mxCell>
        <mxCell id="mWCk10sWJktPvh425N72-13" value="+ getWidth() : integer" style="text;strokeColor=none;fillColor=none;align=left;verticalAlign=top;spacingLeft=4;spacingRight=4;overflow=hidden;rotatable=0;points=[[0,0.5],[1,0.5]];portConstraint=eastwest;" vertex="1" parent="mWCk10sWJktPvh425N72-10">
          <mxGeometry y="60" width="160" height="26" as="geometry"/>
        </mxCell>
        <mxCell id="mWCk10sWJktPvh425N72-14" value="+ getHeight() : integer" style="text;strokeColor=none;fillColor=none;align=left;verticalAlign=top;spacingLeft=4;spacingRight=4;overflow=hidden;rotatable=0;points=[[0,0.5],[1,0.5]];portConstraint=eastwest;" vertex="1" parent="mWCk10sWJktPvh425N72-10">
          <mxGeometry y="86" width="160" height="26" as="geometry"/>
        </mxCell>
        <mxCell id="mWCk10sWJktPvh425N72-15" value="«interface»&lt;br&gt;&lt;b&gt;DrawableShape&lt;/b&gt;" style="swimlane;fontStyle=1;align=center;verticalAlign=top;childLayout=stackLayout;horizontal=1;startSize=40;horizontalStack=0;resizeParent=1;resizeParentMax=0;resizeLast=0;collapsible=1;marginBottom=0;html=1;collapsible=1;swimlaneLine=1;" vertex="1" parent="1">
          <mxGeometry x="520" y="29" width="160" height="66" as="geometry"/>
        </mxCell>
        <mxCell id="mWCk10sWJktPvh425N72-16" value="+ draw()" style="text;strokeColor=none;fillColor=none;align=left;verticalAlign=top;spacingLeft=4;spacingRight=4;overflow=hidden;rotatable=0;points=[[0,0.5],[1,0.5]];portConstraint=eastwest;" vertex="1" parent="mWCk10sWJktPvh425N72-15">
          <mxGeometry y="40" width="160" height="26" as="geometry"/>
        </mxCell>
        <mxCell id="mWCk10sWJktPvh425N72-17" value="«interface»&lt;br&gt;&lt;b&gt;CalcableShape&lt;/b&gt;" style="swimlane;fontStyle=1;align=center;verticalAlign=top;childLayout=stackLayout;horizontal=1;startSize=40;horizontalStack=0;resizeParent=1;resizeParentMax=0;resizeLast=0;collapsible=1;marginBottom=0;html=1;collapsible=1;swimlaneLine=1;" vertex="1" parent="1">
          <mxGeometry x="750" y="3" width="160" height="92" as="geometry"/>
        </mxCell>
        <mxCell id="mWCk10sWJktPvh425N72-18" value="+ perimeter()" style="text;strokeColor=none;fillColor=none;align=left;verticalAlign=top;spacingLeft=4;spacingRight=4;overflow=hidden;rotatable=0;points=[[0,0.5],[1,0.5]];portConstraint=eastwest;" vertex="1" parent="mWCk10sWJktPvh425N72-17">
          <mxGeometry y="40" width="160" height="26" as="geometry"/>
        </mxCell>
        <mxCell id="mWCk10sWJktPvh425N72-19" value="+ area()" style="text;strokeColor=none;fillColor=none;align=left;verticalAlign=top;spacingLeft=4;spacingRight=4;overflow=hidden;rotatable=0;points=[[0,0.5],[1,0.5]];portConstraint=eastwest;" vertex="1" parent="mWCk10sWJktPvh425N72-17">
          <mxGeometry y="66" width="160" height="26" as="geometry"/>
        </mxCell>
        <mxCell id="mWCk10sWJktPvh425N72-20" style="rounded=1;orthogonalLoop=1;jettySize=auto;html=1;entryX=0.457;entryY=1;entryDx=0;entryDy=0;entryPerimeter=0;orthogonal=1;exitX=0.5;exitY=0;exitDx=0;exitDy=0;endArrow=block;endFill=0;endSize=12;" edge="1" parent="1" source="mWCk10sWJktPvh425N72-21" target="mWCk10sWJktPvh425N72-14">
          <mxGeometry relative="1" as="geometry"/>
        </mxCell>
        <mxCell id="mWCk10sWJktPvh425N72-21" value="Square" style="swimlane;fontStyle=1;align=center;verticalAlign=top;childLayout=stackLayout;horizontal=1;startSize=26;horizontalStack=0;resizeParent=1;resizeParentMax=0;resizeLast=0;collapsible=1;marginBottom=0;" vertex="1" parent="1">
          <mxGeometry x="520" y="586" width="160" height="86" as="geometry"/>
        </mxCell>
        <mxCell id="mWCk10sWJktPvh425N72-22" value="- sideLength : integer" style="text;strokeColor=none;fillColor=none;align=left;verticalAlign=top;spacingLeft=4;spacingRight=4;overflow=hidden;rotatable=0;points=[[0,0.5],[1,0.5]];portConstraint=eastwest;" vertex="1" parent="mWCk10sWJktPvh425N72-21">
          <mxGeometry y="26" width="160" height="26" as="geometry"/>
        </mxCell>
        <mxCell id="mWCk10sWJktPvh425N72-23" value="" style="line;strokeWidth=1;fillColor=none;align=left;verticalAlign=middle;spacingTop=-1;spacingLeft=3;spacingRight=3;rotatable=0;labelPosition=right;points=[];portConstraint=eastwest;" vertex="1" parent="mWCk10sWJktPvh425N72-21">
          <mxGeometry y="52" width="160" height="8" as="geometry"/>
        </mxCell>
        <mxCell id="mWCk10sWJktPvh425N72-24" value="+ ..." style="text;strokeColor=none;fillColor=none;align=left;verticalAlign=top;spacingLeft=4;spacingRight=4;overflow=hidden;rotatable=0;points=[[0,0.5],[1,0.5]];portConstraint=eastwest;" vertex="1" parent="mWCk10sWJktPvh425N72-21">
          <mxGeometry y="60" width="160" height="26" as="geometry"/>
        </mxCell>
        <mxCell id="mWCk10sWJktPvh425N72-25" style="rounded=1;orthogonalLoop=1;jettySize=auto;html=1;entryX=0.546;entryY=1;entryDx=0;entryDy=0;entryPerimeter=0;orthogonal=1;exitX=0.5;exitY=0;exitDx=0;exitDy=0;endArrow=block;endFill=0;endSize=12;" edge="1" parent="1" source="mWCk10sWJktPvh425N72-26" target="mWCk10sWJktPvh425N72-14">
          <mxGeometry relative="1" as="geometry">
            <mxPoint x="650" y="525" as="targetPoint"/>
          </mxGeometry>
        </mxCell>
        <mxCell id="mWCk10sWJktPvh425N72-26" value="Rectangle" style="swimlane;fontStyle=1;align=center;verticalAlign=top;childLayout=stackLayout;horizontal=1;startSize=26;horizontalStack=0;resizeParent=1;resizeParentMax=0;resizeLast=0;collapsible=1;marginBottom=0;" vertex="1" parent="1">
          <mxGeometry x="740" y="582" width="160" height="112" as="geometry"/>
        </mxCell>
        <mxCell id="mWCk10sWJktPvh425N72-27" value="- width : integer" style="text;strokeColor=none;fillColor=none;align=left;verticalAlign=top;spacingLeft=4;spacingRight=4;overflow=hidden;rotatable=0;points=[[0,0.5],[1,0.5]];portConstraint=eastwest;" vertex="1" parent="mWCk10sWJktPvh425N72-26">
          <mxGeometry y="26" width="160" height="26" as="geometry"/>
        </mxCell>
        <mxCell id="mWCk10sWJktPvh425N72-28" value="- height : integer" style="text;strokeColor=none;fillColor=none;align=left;verticalAlign=top;spacingLeft=4;spacingRight=4;overflow=hidden;rotatable=0;points=[[0,0.5],[1,0.5]];portConstraint=eastwest;" vertex="1" parent="mWCk10sWJktPvh425N72-26">
          <mxGeometry y="52" width="160" height="26" as="geometry"/>
        </mxCell>
        <mxCell id="mWCk10sWJktPvh425N72-29" value="" style="line;strokeWidth=1;fillColor=none;align=left;verticalAlign=middle;spacingTop=-1;spacingLeft=3;spacingRight=3;rotatable=0;labelPosition=right;points=[];portConstraint=eastwest;" vertex="1" parent="mWCk10sWJktPvh425N72-26">
          <mxGeometry y="78" width="160" height="8" as="geometry"/>
        </mxCell>
        <mxCell id="mWCk10sWJktPvh425N72-30" value="+ ..." style="text;strokeColor=none;fillColor=none;align=left;verticalAlign=top;spacingLeft=4;spacingRight=4;overflow=hidden;rotatable=0;points=[[0,0.5],[1,0.5]];portConstraint=eastwest;" vertex="1" parent="mWCk10sWJktPvh425N72-26">
          <mxGeometry y="86" width="160" height="26" as="geometry"/>
        </mxCell>
        <mxCell id="mWCk10sWJktPvh425N72-31" value="«interface»&lt;br&gt;&lt;b&gt;Interface&lt;/b&gt;" style="swimlane;fontStyle=1;align=center;verticalAlign=top;childLayout=stackLayout;horizontal=1;startSize=40;horizontalStack=0;resizeParent=1;resizeParentMax=0;resizeLast=0;collapsible=1;marginBottom=0;html=1;collapsible=1;swimlaneLine=1;" vertex="1" parent="1">
          <mxGeometry x="180" y="176" width="160" height="66" as="geometry"/>
        </mxCell>
        <mxCell id="mWCk10sWJktPvh425N72-32" value="+ method(type) : type" style="text;strokeColor=none;fillColor=none;align=left;verticalAlign=top;spacingLeft=4;spacingRight=4;overflow=hidden;rotatable=0;points=[[0,0.5],[1,0.5]];portConstraint=eastwest;" vertex="1" parent="mWCk10sWJktPvh425N72-31">
          <mxGeometry y="40" width="160" height="26" as="geometry"/>
        </mxCell>
        <mxCell id="mWCk10sWJktPvh425N72-33" value="Classname" style="swimlane;fontStyle=1;align=center;verticalAlign=top;childLayout=stackLayout;horizontal=1;startSize=26;horizontalStack=0;resizeParent=1;resizeParentMax=0;resizeLast=0;collapsible=1;marginBottom=0;" vertex="1" parent="1">
          <mxGeometry y="174" width="160" height="86" as="geometry"/>
        </mxCell>
        <mxCell id="mWCk10sWJktPvh425N72-34" value="- field: type" style="text;strokeColor=none;fillColor=none;align=left;verticalAlign=top;spacingLeft=4;spacingRight=4;overflow=hidden;rotatable=0;points=[[0,0.5],[1,0.5]];portConstraint=eastwest;" vertex="1" parent="mWCk10sWJktPvh425N72-33">
          <mxGeometry y="26" width="160" height="26" as="geometry"/>
        </mxCell>
        <mxCell id="mWCk10sWJktPvh425N72-35" value="" style="line;strokeWidth=1;fillColor=none;align=left;verticalAlign=middle;spacingTop=-1;spacingLeft=3;spacingRight=3;rotatable=0;labelPosition=right;points=[];portConstraint=eastwest;" vertex="1" parent="mWCk10sWJktPvh425N72-33">
          <mxGeometry y="52" width="160" height="8" as="geometry"/>
        </mxCell>
        <mxCell id="mWCk10sWJktPvh425N72-36" value="+ method(type): type" style="text;strokeColor=none;fillColor=none;align=left;verticalAlign=top;spacingLeft=4;spacingRight=4;overflow=hidden;rotatable=0;points=[[0,0.5],[1,0.5]];portConstraint=eastwest;" vertex="1" parent="mWCk10sWJktPvh425N72-33">
          <mxGeometry y="60" width="160" height="26" as="geometry"/>
        </mxCell>
        <mxCell id="mWCk10sWJktPvh425N72-37" value="" style="endArrow=block;dashed=1;endFill=0;endSize=12;html=1;" edge="1" parent="1">
          <mxGeometry width="160" relative="1" as="geometry">
            <mxPoint x="10" y="387.5" as="sourcePoint"/>
            <mxPoint x="170" y="387.5" as="targetPoint"/>
          </mxGeometry>
        </mxCell>
        <mxCell id="mWCk10sWJktPvh425N72-38" value="" style="endArrow=block;endFill=0;endSize=12;html=1;rounded=1;" edge="1" parent="1">
          <mxGeometry width="160" relative="1" as="geometry">
            <mxPoint x="10" y="505" as="sourcePoint"/>
            <mxPoint x="170" y="505" as="targetPoint"/>
          </mxGeometry>
        </mxCell>
        <mxCell id="mWCk10sWJktPvh425N72-39" value="Implementation line: used when inheriting from an interface. Dashed line instead of solid." style="whiteSpace=wrap;html=1;shape=mxgraph.basic.roundRectCallout;dx=30;dy=15;size=5;boundedLbl=1;align=center;verticalAlign=middle;labelPosition=center;verticalLabelPosition=middle;" vertex="1" parent="1">
          <mxGeometry x="80" y="315" width="200" height="60" as="geometry"/>
        </mxCell>
        <mxCell id="mWCk10sWJktPvh425N72-40" value="Extends line: used when inheriting from a class or abstract class." style="whiteSpace=wrap;html=1;shape=mxgraph.basic.roundRectCallout;dx=30;dy=15;size=5;boundedLbl=1;align=left;verticalAlign=middle;labelPosition=center;verticalLabelPosition=middle;" vertex="1" parent="1">
          <mxGeometry x="80" y="440" width="200" height="60" as="geometry"/>
        </mxCell>
        <mxCell id="mWCk10sWJktPvh425N72-41" value="&lt;h1&gt;Adding fields and methods&lt;/h1&gt;&lt;p&gt;To add a field or method to these prototypes, select an existing field or method box, and press Ctrl-Enter (for Windows) or Cmd-Enter (for Mac).&amp;nbsp; This will create a duplicate immediately below your selection.&amp;nbsp; &amp;nbsp;The other way to create new fields is from the menu bar select &quot;Edit -&amp;gt; Duplicate&quot; or Ctrl-D/Cmd-D.&amp;nbsp; This will add the new field at the end of the class, and you will need to move it to where you want it in the class.&lt;/p&gt;" style="text;html=1;strokeColor=none;fillColor=none;spacing=5;spacingTop=-20;whiteSpace=wrap;overflow=hidden;rounded=0;" vertex="1" parent="1">
          <mxGeometry x="10" width="320" height="164" as="geometry"/>
        </mxCell>
      </root>
    </mxGraphModel>
  </diagram>
</mxfile>
